<?xml version="1.0" standalone="no"?>
<!DOCTYPE svg PUBLIC "-//W3C//DTD SVG 20010904//EN"
 "http://www.w3.org/TR/2001/REC-SVG-20010904/DTD/svg10.dtd">
<svg version="1.0" xmlns="http://www.w3.org/2000/svg"
 width="512.000000pt" height="512.000000pt" viewBox="0 0 512.000000 512.000000"
 preserveAspectRatio="xMidYMid meet" class="" >

    <g transform="translate(0.000000,512.000000) scale(0.100000,-0.100000)"
    fill="white" stroke="none">
    <path d="M1115 4669 c-138 -20 -316 -84 -445 -159 -327 -191 -536 -487 -622
    -877 -26 -119 -31 -399 -10 -498 99 -455 432 -759 1000 -911 65 -17 102 -32
    102 -41 0 -58 -87 -390 -141 -536 -82 -224 -133 -313 -433 -771 -130 -197
    -236 -366 -236 -376 0 -27 39 -70 64 -70 25 0 209 120 394 257 683 505 1206
    1067 1465 1573 154 302 211 550 210 915 0 321 -48 545 -167 790 -137 279 -333
    480 -601 613 -186 92 -371 121 -580 91z m343 -144 c85 -20 262 -117 375 -207
    365 -287 542 -817 472 -1408 -27 -224 -75 -383 -183 -595 -221 -436 -646 -910
    -1238 -1383 -270 -215 -265 -216 -121 4 172 262 221 346 287 492 97 214 174
    467 215 706 19 115 19 149 -2 168 -10 9 -66 25 -125 37 -417 83 -741 294 -881
    576 -72 144 -97 260 -97 445 0 263 74 501 218 706 160 226 422 401 688 458 94
    20 306 20 392 1z"/>
    <path d="M3779 4669 c-288 -30 -572 -175 -778 -395 -159 -171 -268 -383 -322
    -629 -29 -129 -36 -372 -16 -490 64 -359 268 -617 636 -803 103 -51 291 -118
    404 -143 31 -7 57 -15 57 -19 0 -5 -9 -52 -20 -105 -66 -320 -180 -621 -324
    -854 -32 -51 -143 -221 -247 -377 -201 -302 -219 -332 -219 -362 0 -26 41 -62
    71 -62 41 0 359 221 624 434 752 603 1241 1232 1385 1781 36 139 49 226 59
    395 43 715 -252 1298 -782 1544 -110 52 -182 72 -302 86 -100 11 -116 11 -226
    -1z m296 -144 c135 -35 341 -162 469 -291 334 -333 471 -905 355 -1479 -104
    -515 -529 -1098 -1236 -1693 -113 -94 -390 -312 -398 -312 -2 0 60 98 137 218
    218 334 322 549 403 833 37 127 79 323 90 419 10 81 -4 93 -137 119 -481 94
    -824 352 -936 701 -35 110 -45 180 -45 315 -1 335 118 630 343 855 161 162
    353 267 570 314 90 20 310 20 385 1z"/>
    </g>
</svg>
